<svg xmlns="http://www.w3.org/2000/svg" width="640" height="360" viewBox="0 0 640 360" role="img" aria-label="Power BI para Principiantes">
  <defs>
    <linearGradient id="book_1_7ff16558_bg" x1="0" y1="0" x2="1" y2="1">
      <stop offset="0" stop-color="#21130b"/>
      <stop offset=".52" stop-color="#3a2113"/>
      <stop offset="1" stop-color="#11100d"/>
    </linearGradient>
    <linearGradient id="book_1_7ff16558_cover" x1="0" y1="0" x2="1" y2="1">
      <stop offset="0" stop-color="#213e52"/>
      <stop offset=".58" stop-color="#0e1d29"/>
      <stop offset="1" stop-color="#120c08"/>
    </linearGradient>
    <pattern id="book_1_7ff16558_grain" width="42" height="42" patternUnits="userSpaceOnUse">
      <path d="M0 12h42M8 0v42" fill="none" stroke="#fff4dc" stroke-opacity=".055" stroke-width="1"/>
    </pattern>
    <filter id="book_1_7ff16558_shadow" x="-20%" y="-20%" width="140%" height="140%">
      <feDropShadow dx="0" dy="18" stdDeviation="18" flood-color="#000000" flood-opacity=".42"/>
      <feDropShadow dx="0" dy="0" stdDeviation="8" flood-color="#d6a85c" flood-opacity=".18"/>
    </filter>
  </defs>
  <rect width="640" height="360" fill="url(#book_1_7ff16558_bg)"/>
  <rect width="640" height="360" fill="url(#book_1_7ff16558_grain)"/>
  <path d="M0 286h640v44H0z" fill="#5a351d" opacity=".65"/>
  <path d="M0 285h640" stroke="#d6a85c" stroke-opacity=".42" stroke-width="3"/>
  <g opacity=".36">
    <rect x="18" y="88" width="28" height="190" rx="5" fill="#6f3d24"/>
    <rect x="52" y="68" width="34" height="210" rx="5" fill="#173d35"/>
    <rect x="552" y="84" width="28" height="194" rx="5" fill="#5a211b"/>
    <rect x="586" y="58" width="34" height="220" rx="5" fill="#4d5130"/>
  </g>
  <g filter="url(#book_1_7ff16558_shadow)">
    <rect x="64" y="54" width="512" height="252" rx="8" fill="url(#book_1_7ff16558_cover)" stroke="#d6a85c" stroke-opacity=".74" stroke-width="2"/>
    <rect x="78" y="68" width="484" height="224" rx="6" fill="none" stroke="#fff4dc" stroke-opacity=".18"/>
    <path d="M314 54v252" stroke="#000000" stroke-opacity=".22" stroke-width="18"/>
    <path d="M326 54v252" stroke="#fff4dc" stroke-opacity=".12" stroke-width="2"/>
    <rect x="84" y="84" width="172" height="34" rx="6" fill="#fff4dc" fill-opacity=".12" stroke="#d6a85c" stroke-opacity=".38"/>
    <text x="100" y="106" fill="#d6a85c" font-family="Inter, Segoe UI, Arial, sans-serif" font-size="14" font-weight="900">BI</text>
    <text x="86" y="152" fill="#fff4dc" font-family="Georgia, 'Times New Roman', serif" font-size="28" font-weight="900">Power BI para</text><text x="86" y="184" fill="#fff4dc" font-family="Georgia, 'Times New Roman', serif" font-size="28" font-weight="900">Principiantes</text>
    <path d="M88 248h174" stroke="#d6a85c" stroke-width="3" stroke-linecap="round" opacity=".72"/>
    <text x="88" y="274" fill="#d8bc82" font-family="Inter, Segoe UI, Arial, sans-serif" font-size="15" font-weight="850">Cursoteca Abierta</text>
    <rect x="372" y="78" width="130" height="28" rx="6" fill="#83c7d0" fill-opacity=".22" stroke="#83c7d0" stroke-opacity=".46"/>
    <text x="437" y="97" text-anchor="middle" fill="#fff4dc" font-family="Inter, Segoe UI, Arial, sans-serif" font-size="13" font-weight="950">DATA</text>
    <path d="M438 116l18 42 42 18-42 18-18 42-18-42-42-18 42-18 18-42Z" fill="#83c7d0" opacity=".24" stroke="#d6a85c" stroke-width="3"/><circle cx="438" cy="176" r="64" fill="none" stroke="#d6a85c" stroke-width="3" opacity=".48"/><path d="M394 132h88M394 220h88M350 176h176" stroke="#d6a85c" stroke-width="2" opacity=".34"/>
  </g>
  <path d="M64 62v-8h42M576 298v8h-42M576 62v-8h-42M64 298v8h42" stroke="#d6a85c" stroke-width="3" opacity=".76" fill="none"/>
  <rect x="0" y="0" width="640" height="360" fill="none" stroke="#d6a85c" stroke-opacity=".18"/>
</svg>
